<!-- icon666.com - MILLIONS vector ICONS FREE --><svg viewBox="0 -71 511.99994 511" xmlns="http://www.w3.org/2000/svg"><path d="m449.679688 267.398438v-224.652344c0-5.550782-4.5-10.050782-10.050782-10.050782h-365.785156c-5.550781 0-10.050781 4.5-10.050781 10.050782v224.652344c0 5.550781 4.5 10.050781 10.050781 10.050781h365.785156c5.550782-.003907 10.050782-4.5 10.050782-10.050781zm-334.953126-10.050782h-30.835937v-25.476562h30.835937zm0-45.574218h-5.820312v-37.976563c0-5.550781-4.5-10.050781-10.050781-10.050781-5.546875 0-10.046875 4.5-10.046875 10.050781v37.976563h-4.917969v-158.980469h30.835937zm267.976563-158.980469h46.878906v50.953125h-46.878906zm0 71.050781h46.878906v44.214844h-46.878906zm46.878906 133.503906h-294.757812v-204.554687h227.78125v125.316406c0 5.550781 4.5 10.050781 10.046875 10.050781h56.929687zm0 0" fill="#000000" style="fill: rgb(255, 255, 255);"></path><path d="m98.847656 80.132812c.761719 0 1.539063-.085937 2.3125-.269531l.453125-.105469c5.402344-1.273437 8.75-6.683593 7.476563-12.085937-1.269532-5.402344-6.683594-8.75-12.082032-7.480469l-.453124.109375c-5.402344 1.269531-8.75 6.679688-7.480469 12.082031 1.089843 4.628907 5.214843 7.75 9.773437 7.75zm0 0" fill="#000000" style="fill: rgb(255, 255, 255);"></path><path d="m98.847656 111.894531c.761719 0 1.539063-.085937 2.3125-.269531l.453125-.105469c5.402344-1.273437 8.75-6.683593 7.476563-12.085937-1.269532-5.402344-6.683594-8.753906-12.082032-7.480469l-.453124.109375c-5.402344 1.269531-8.75 6.679688-7.480469 12.082031 1.089843 4.628907 5.214843 7.75 9.773437 7.75zm0 0" fill="#000000" style="fill: rgb(255, 255, 255);"></path><path d="m98.847656 143.65625c.761719 0 1.539063-.089844 2.3125-.269531l.453125-.109375c5.402344-1.269532 8.75-6.679688 7.476563-12.082032-1.269532-5.402343-6.683594-8.75-12.082032-7.480468l-.453124.105468c-5.402344 1.273438-8.75 6.683594-7.480469 12.085938 1.089843 4.628906 5.214843 7.75 9.773437 7.75zm0 0" fill="#000000" style="fill: rgb(255, 255, 255);"></path><path d="m510.050781 292.105469c-1.894531-2.578125-4.902343-4.097657-8.101562-4.097657h-22.066407v-277.457031c0-5.550781-4.5-10.050781-10.050781-10.050781h-427.320312c-5.550781 0-10.050781 4.5-10.050781 10.050781v277.457031h-22.410157c-3.199219 0-6.207031 1.519532-8.097656 4.097657-1.8945312 2.578125-2.449219 5.902343-1.492187 8.953125 6.308593 20.160156 18.640624 37.429687 35.664062 49.941406s37.191406 19.125 58.316406 19.125h323.117188c21.125 0 41.289062-6.613281 58.316406-19.125 17.023438-12.511719 29.355469-29.78125 35.664062-49.941406.957032-3.050782.402344-6.375-1.488281-8.953125zm-92.492187 57.917969h-323.117188c-29.664062 0-56.074218-16.378907-69.40625-41.917969h17.320313c.054687 0 .105469.007812.15625.007812.054687 0 .105469-.007812.15625-.007812h139.5625v15.609375c0 5.550781 4.5 10.046875 10.050781 10.046875h127.4375c5.550781 0 10.050781-4.496094 10.050781-10.046875v-15.609375h33.335938c5.550781 0 10.050781-4.5 10.050781-10.050781 0-5.550782-4.5-10.046876-10.050781-10.046876h-43.386719c-5.546875 0-10.046875 4.496094-10.046875 10.046876v15.609374h-107.34375v-15.609374c0-5.550782-4.5-10.046876-10.046875-10.046876h-139.722656v-267.410156h407.226562v267.410156h-15.785156c-5.546875 0-10.046875 4.5-10.046875 10.046876 0 5.550781 4.5 10.050781 10.046875 10.050781h25.675781c.054688 0 .105469.007812.15625.007812.054688 0 .105469-.007812.15625-.007812h16.980469c-13.335938 25.539062-39.746094 41.917969-69.410156 41.917969zm0 0" fill="#000000" style="fill: rgb(255, 255, 255);"></path><path d="m276.917969 287.980469h-36.808594c-5.550781 0-10.050781 4.5-10.050781 10.050781s4.5 10.050781 10.050781 10.050781h36.808594c5.546875 0 10.046875-4.5 10.046875-10.050781s-4.5-10.050781-10.046875-10.050781zm0 0" fill="#000000" style="fill: rgb(255, 255, 255);"></path><path d="m401.105469 288.226562-.453125.105469c-5.402344 1.269531-8.753906 6.679688-7.484375 12.082031 1.085937 4.628907 5.214843 7.753907 9.773437 7.753907.761719 0 1.535156-.085938 2.308594-.269531l.453125-.105469c5.402344-1.269531 8.753906-6.679688 7.484375-12.082031-1.269531-5.402344-6.679688-8.75-12.082031-7.484376zm0 0" fill="#000000" style="fill: rgb(255, 255, 255);"></path><path d="m288.492188 73.015625c-28.488282 0-51.777344 22.640625-52.851563 50.871094h-46.777344c-5.550781 0-10.050781 4.496093-10.050781 10.046875v91.613281c0 5.550781 4.5 10.050781 10.050781 10.050781h91.613281c5.546876 0 10.046876-4.5 10.046876-10.050781v-46.777344c28.230468-1.074219 50.871093-24.363281 50.871093-52.851562 0-29.171875-23.730469-52.902344-52.902343-52.902344zm-18.066407 142.484375h-71.515625v-71.515625h39.859375c5.34375 14.660156 16.996094 26.3125 31.65625 31.65625zm18.066407-56.777344c-18.089844 0-32.804688-14.714844-32.804688-32.804687 0-18.089844 14.714844-32.804688 32.804688-32.804688 18.089843 0 32.804687 14.714844 32.804687 32.804688 0 18.089843-14.714844 32.804687-32.804687 32.804687zm0 0" fill="#000000" style="fill: rgb(255, 255, 255);"></path></svg>