<!-- icon666.com - MILLIONS vector ICONS FREE --><svg id="Capa_1" enable-background="new 0 0 512 512" viewBox="0 0 512 512" xmlns="http://www.w3.org/2000/svg"><g><path d="m82.035 142.951c.153 1.316.282 2.663.384 3.726.833 8.677 1.694 17.651 9.516 19.428 7.698 1.75 12.283-5.827 16.718-13.154.615-1.016 1.406-2.323 2.195-3.558.789 1.235 1.58 2.542 2.194 3.557 3.997 6.604 8.117 13.411 14.523 13.41.702 0 1.433-.082 2.193-.255 7.823-1.777 8.685-10.751 9.517-19.428.102-1.062.232-2.41.384-3.726 1.167.724 2.35 1.493 3.278 2.096 7.241 4.707 14.728 9.575 20.94 4.615 6.224-4.97 3.131-13.371.139-21.495-.379-1.027-.859-2.334-1.302-3.616 1.336.145 2.698.323 3.772.462 8.609 1.122 17.514 2.277 20.986-4.919 3.446-7.142-2.949-13.334-9.134-19.322-.806-.78-1.833-1.775-2.81-2.764 1.221-.431 2.472-.846 3.463-1.175 8.306-2.755 16.895-5.604 16.895-13.655 0-8.052-8.589-10.901-16.895-13.657-.99-.328-2.24-.742-3.462-1.174.978-.988 2.004-1.983 2.81-2.763 6.185-5.988 12.58-12.179 9.135-19.323-3.473-7.196-12.376-6.039-20.986-4.918-1.074.139-2.436.317-3.772.462.442-1.283.923-2.588 1.301-3.615 2.992-8.124 6.086-16.526-.139-21.495-6.211-4.961-13.698-.095-20.939 4.613-.929.604-2.112 1.373-3.279 2.097-.153-1.317-.282-2.664-.384-3.727-.833-8.677-1.695-17.651-9.518-19.428-7.688-1.743-12.28 5.828-16.716 13.154-.615 1.016-1.406 2.323-2.195 3.558-.789-1.235-1.581-2.542-2.195-3.558-4.435-7.322-9.022-14.899-16.715-13.149-7.823 1.777-8.684 10.751-9.517 19.427-.102 1.063-.231 2.411-.384 3.727-1.167-.724-2.35-1.493-3.279-2.096-7.24-4.708-14.727-9.575-20.939-4.614-6.224 4.97-3.131 13.371-.139 21.495.379 1.027.859 2.333 1.301 3.616-1.335-.146-2.697-.323-3.771-.463-8.613-1.119-17.516-2.278-20.986 4.919-3.447 7.143 2.95 13.335 9.135 19.323.805.78 1.833 1.775 2.809 2.763-1.221.431-2.472.846-3.462 1.174-8.306 2.756-16.895 5.605-16.895 13.657 0 8.051 8.589 10.9 16.895 13.655.99.329 2.241.743 3.462 1.175-.977.988-2.004 1.982-2.81 2.763-6.185 5.988-12.581 12.179-9.135 19.322 3.472 7.197 12.376 6.04 20.987 4.919 1.074-.14 2.435-.316 3.77-.462-.442 1.284-.923 2.589-1.301 3.616-2.992 8.124-6.086 16.525.139 21.494 6.213 4.962 13.7.094 20.94-4.613.928-.609 2.111-1.377 3.278-2.101zm-8.984-29.645c-3.77-4.722-10.115-4.363-17.556-3.437 5.356-5.249 9.565-10.008 8.223-15.915-1.355-5.958-7.373-8.351-14.595-10.774 7.221-2.424 13.24-4.817 14.595-10.775 1.343-5.907-2.867-10.666-8.222-15.915 7.44.926 13.785 1.286 17.556-3.437 3.782-4.737 2.019-10.864-.541-17.934 6.327 4.062 11.913 7.129 17.373 4.495 5.431-2.619 6.485-8.879 7.24-16.327 3.932 6.4 7.65 11.56 13.725 11.56 6.076 0 9.793-5.161 13.725-11.56.755 7.447 1.808 13.706 7.239 16.327 5.463 2.635 11.048-.433 17.374-4.495-2.56 7.071-4.324 13.197-.541 17.934 3.771 4.723 10.117 4.363 17.555 3.437-5.355 5.249-9.564 10.008-8.222 15.914 1.354 5.959 7.373 8.352 14.594 10.776-7.222 2.423-13.24 4.816-14.594 10.775-1.343 5.906 2.867 10.665 8.223 15.915-7.44-.927-13.786-1.286-17.556 3.437-3.782 4.736-2.019 10.864.541 17.934-6.327-4.062-11.913-7.131-17.374-4.496-5.431 2.62-6.485 8.879-7.24 16.327-3.932-6.4-7.649-11.56-13.725-11.56s-9.794 5.161-13.725 11.561c-.755-7.448-1.809-13.707-7.24-16.328-1.412-.682-2.832-.981-4.272-.981-4.127 0-8.411 2.466-13.102 5.478 2.561-7.072 4.324-13.2.542-17.936z" fill="#000000" style="fill: rgb(255, 255, 255);"></path><path d="m275.792 457.051c-8.236 1.619-16.706 2.441-25.177 2.441-71.523 0-129.711-58.187-129.711-129.711 0-29.798 10.354-58.899 29.154-81.941 2.616-3.206 2.137-7.925-1.069-10.542-3.206-2.615-7.926-2.138-10.541 1.069-20.977 25.709-32.529 58.173-32.529 91.414 0 79.785 64.91 144.695 144.695 144.695 9.439 0 18.883-.916 28.068-2.722 4.06-.799 6.704-4.737 5.905-8.797-.797-4.06-4.737-6.704-8.795-5.906z" fill="#000000" style="fill: rgb(255, 255, 255);"></path><path d="m250.615 362.264c17.911 0 32.483-14.572 32.483-32.483s-14.572-32.483-32.483-32.483-32.483 14.572-32.483 32.483c0 17.912 14.572 32.483 32.483 32.483zm0-49.981c9.649 0 17.498 7.85 17.498 17.498s-7.85 17.498-17.498 17.498c-9.649 0-17.498-7.85-17.498-17.498-.001-9.648 7.849-17.498 17.498-17.498z" fill="#000000" style="fill: rgb(255, 255, 255);"></path><path d="m342.734 45.012c-54.334 0-98.537 44.204-98.537 98.538 0 54.333 44.204 98.537 98.537 98.537s98.537-44.204 98.537-98.537c0-54.334-44.204-98.538-98.537-98.538zm78.127 68.96-34.986 9.762c-3.701-8.026-9.57-14.852-16.861-19.715l15.075-33.024c16.732 9.575 29.85 24.756 36.772 42.977zm-68.84 112.602c-.595-.584-1.191-1.166-1.795-1.739v-27.401c1.979.406 3.767.88 4.659 1.592 1.205.962 2.344 3.594 3.445 6.14 1.503 3.473 3.206 7.41 6.349 10.553 2.596 2.596 5.732 4.205 8.703 5.535-6.741 2.668-13.901 4.491-21.361 5.32zm-92.84-83.024c0-5.173.497-10.23 1.401-15.145l34.977 9.759c-.201 1.769-.314 3.564-.314 5.386 0 3.653.428 7.206 1.213 10.624-1.601-.901-3.349-1.637-5.294-2.08-5.102-1.161-9.886.14-14.107 1.287-2.498.679-5.085 1.376-6.704 1.2-1.526-.17-3.839-1.4-6.077-2.589-1.513-.805-3.127-1.661-4.853-2.404-.144-1.997-.242-4.006-.242-6.038zm73.292 46.361c.913.937 1.827 1.737 2.768 2.433v20.095c-13.412-9.664-28.406-16.991-44.247-21.61l16.889-12.399c1.03.149 2.02.23 2.945.267 6.015 5.463 13.437 9.398 21.645 11.214zm-63.781-20.438c4.457.492 8.621-.634 12.294-1.632 2.531-.689 5.4-1.468 6.856-1.136 1.461.332 3.506 2.058 5.519 3.797l-21.905 16.081c-.112-.016-.225-.031-.337-.047-3.487-5.788-6.29-12.031-8.303-18.618 1.832.736 3.782 1.321 5.876 1.555zm59.435 56.325c-15.98-2.831-30.407-10.201-41.883-20.751 15.063 4.317 29.284 11.368 41.883 20.751zm14.607-49.743c-17.923 0-32.505-14.581-32.505-32.505s14.582-32.506 32.505-32.506c17.924 0 32.506 14.582 32.506 32.506s-14.583 32.505-32.506 32.505zm27.736-111.307-15.081 33.037c-4.032-1.117-8.273-1.726-12.655-1.726s-8.623.609-12.655 1.726l-15.081-33.037c8.685-3.066 18.015-4.752 27.736-4.752 9.72 0 19.051 1.686 27.736 4.752zm-69.092 6.247 15.075 33.024c-7.291 4.863-13.159 11.689-16.86 19.715l-34.986-9.762c6.921-18.222 20.04-33.402 36.771-42.977zm88.119 141.762c-2.649-1.969-5.6-3.267-8.316-4.441-2.353-1.018-4.786-2.07-5.907-3.192-1.121-1.121-2.174-3.554-3.191-5.907-1.745-4.034-3.723-8.607-7.848-11.901-.388-.31-.789-.579-1.189-.849 4.852-2.306 9.253-5.41 13.034-9.143l29.255 21.477c-4.671 5.285-9.984 9.987-15.838 13.956zm24.733-26.014-29.277-21.493c3.36-6.51 5.27-13.884 5.27-21.701 0-1.822-.113-3.617-.314-5.385l34.976-9.76c.904 4.916 1.401 9.972 1.401 15.145.001 15.797-4.408 30.582-12.056 43.194z" fill="#000000" style="fill: rgb(255, 255, 255);"></path><path d="m486.192 143.55c0-6.81-5.912-11.025-10.663-14.41-1.022-.729-2.505-1.785-3.544-2.652.797-1.14 2.007-2.605 2.838-3.61 3.674-4.444 8.247-9.973 6.514-16.459-1.753-6.559-8.538-9.089-13.991-11.122-1.19-.444-2.919-1.09-4.157-1.663.471-1.3 1.252-3.015 1.789-4.193 2.397-5.261 5.381-11.81 2.008-17.64-3.388-5.855-10.578-6.536-16.355-7.083-1.272-.12-3.122-.295-4.473-.531.254-4.087-2.826-7.629-6.921-7.934-4.125-.297-7.721 2.787-8.029 6.915-.215 2.874-.189 7.099 2.497 10.594 3.652 4.751 9.954 5.348 15.514 5.874.995.095 2.342.221 3.531.385-.446 1.098-.998 2.31-1.407 3.208-2.324 5.099-4.957 10.879-2.652 16.44 2.288 5.517 8.201 7.722 13.42 9.668.943.352 2.22.828 3.332 1.298-.71.934-1.546 1.945-2.167 2.695-3.582 4.331-7.642 9.241-6.861 15.233.77 5.903 5.896 9.556 10.418 12.779.853.608 2.018 1.439 2.996 2.208-.978.768-2.143 1.598-2.995 2.206-4.523 3.223-9.649 6.877-10.419 12.781-.781 5.992 3.278 10.902 6.861 15.233.62.75 1.457 1.762 2.167 2.695-1.112.47-2.389.946-3.331 1.298-5.219 1.946-11.133 4.152-13.421 9.669-2.306 5.56.328 11.34 2.652 16.44.409.897.961 2.109 1.407 3.207-1.189.164-2.535.292-3.53.385-5.561.527-11.863 1.123-15.515 5.875-3.66 4.764-2.612 11.018-1.686 16.536.164.981.387 2.308.535 3.493-1.185-.147-2.512-.37-3.492-.535-5.521-.926-11.775-1.975-16.538 1.687-4.751 3.651-5.348 9.953-5.874 15.513-.094.995-.222 2.342-.386 3.531-1.098-.446-2.31-.998-3.207-1.407-5.099-2.324-10.879-4.957-16.44-2.652-5.516 2.288-7.722 8.201-9.668 13.42-.352.943-.828 2.22-1.298 3.332-.934-.71-1.945-1.547-2.696-2.168-4.331-3.582-9.243-7.629-15.233-6.861-5.904.77-9.556 5.896-12.78 10.419-.607.853-1.438 2.017-2.207 2.995-.768-.978-1.598-2.142-2.206-2.995-3.223-4.523-6.876-9.649-12.781-10.419-5.99-.77-10.901 3.279-15.232 6.861-.751.62-1.762 1.457-2.696 2.168-.47-1.112-.947-2.389-1.298-3.332-1.946-5.218-4.152-11.132-9.669-13.42-5.561-2.309-11.34.328-16.44 2.652-.897.409-2.109.961-3.207 1.407-.164-1.188-.291-2.535-.385-3.531-.526-5.561-1.122-11.863-5.875-15.515-4.763-3.658-11.017-2.61-16.536-1.686-.981.165-2.308.387-3.493.535.148-1.185.37-2.512.535-3.493.925-5.519 1.975-11.773-1.686-16.536-3.651-4.753-9.954-5.349-15.515-5.876-.995-.094-2.342-.221-3.53-.385.446-1.097.998-2.31 1.407-3.208 2.324-5.099 4.957-10.879 2.652-16.439-2.287-5.517-8.201-7.722-13.42-9.668-.943-.352-2.22-.828-3.332-1.298.71-.934 1.546-1.945 2.167-2.695 3.582-4.331 7.642-9.241 6.861-15.233-.77-5.904-5.896-9.557-10.419-12.781-.852-.608-2.017-1.438-2.995-2.206.978-.769 2.143-1.6 2.996-2.208 4.522-3.222 9.648-6.876 10.418-12.779.781-5.992-3.278-10.902-6.861-15.233-.62-.75-1.457-1.762-2.167-2.695 1.112-.47 2.39-.947 3.333-1.298 5.218-1.946 11.132-4.153 13.419-9.669 2.306-5.561-.328-11.341-2.652-16.44-.408-.897-.96-2.109-1.407-3.208 1.188-.164 2.536-.291 3.531-.385 5.56-.526 11.862-1.123 15.514-5.875 3.66-4.764 2.612-11.019 1.686-16.537-.165-.98-.387-2.307-.535-3.492 1.185.148 2.512.371 3.492.535 5.518.925 11.774 1.975 16.536-1.686 4.752-3.651 5.349-9.953 5.875-15.514.094-.995.222-2.342.386-3.531 1.097.446 2.309.998 3.206 1.407 5.101 2.324 10.883 4.958 16.439 2.653 5.518-2.288 7.723-8.201 9.67-13.42.352-.943.828-2.221 1.298-3.332.933.71 1.945 1.546 2.695 2.167 4.331 3.582 9.243 7.634 15.233 6.861 5.904-.77 9.557-5.896 12.78-10.419.608-.853 1.438-2.017 2.206-2.995.769.977 1.599 2.142 2.207 2.995 3.223 4.523 6.876 9.649 12.78 10.419 5.996.775 10.901-3.279 15.232-6.86.751-.62 1.763-1.457 2.696-2.168.47 1.111.947 2.389 1.298 3.332 1.946 5.218 4.152 11.132 9.668 13.42 5.56 2.304 11.34-.327 16.44-2.652.897-.409 2.109-.961 3.207-1.407.164 1.188.291 2.534.386 3.53.184 1.943.374 3.953.737 5.897.759 4.068 4.677 6.746 8.74 5.991 4.068-.76 6.749-4.673 5.99-8.74-.239-1.28-.39-2.873-.549-4.56-.547-5.777-1.227-12.967-7.082-16.355-5.832-3.372-12.379-.389-17.641 2.009-1.177.537-2.892 1.317-4.193 1.788-.574-1.238-1.219-2.968-1.663-4.157-2.033-5.452-4.564-12.237-11.122-13.99-6.488-1.738-12.017 2.839-16.46 6.513-1.005.83-2.469 2.042-3.61 2.838-.866-1.039-1.923-2.523-2.652-3.544-3.385-4.751-7.599-10.663-14.409-10.663s-11.024 5.912-14.409 10.662c-.728 1.022-1.786 2.506-2.652 3.545-1.141-.796-2.605-2.007-3.609-2.838-4.444-3.674-9.969-8.245-16.459-6.514-6.56 1.752-9.09 8.538-11.124 13.99-.444 1.19-1.089 2.92-1.663 4.157-1.3-.47-3.015-1.252-4.193-1.788-5.262-2.398-11.81-5.381-17.641-2.008-5.854 3.388-6.535 10.578-7.081 16.355-.12 1.273-.296 3.125-.531 4.476-1.372-.12-3.217-.429-4.485-.642-5.712-.957-12.821-2.15-17.593 2.622-4.771 4.771-3.579 11.88-2.622 17.591.213 1.268.522 3.114.642 4.486-1.351.235-3.203.411-4.475.532-5.778.546-12.968 1.227-16.355 7.081-3.374 5.831-.391 12.38 2.007 17.641.536 1.177 1.318 2.892 1.789 4.193-1.238.575-2.968 1.219-4.158 1.663-5.452 2.034-12.237 4.565-13.99 11.123-1.734 6.486 2.839 12.016 6.514 16.459.831 1.005 2.041 2.469 2.838 3.61-1.039.866-2.522 1.923-3.544 2.652-4.75 3.385-10.663 7.6-10.663 14.41 0 4.47 2.55 7.816 5.643 10.549-2.73 1.511-5.039 3.5-7.162 5.337-3.42 3.012-5.513 4.933-12.143 4.226-4.382-.175-9.348-.37-14.083 1.913-4.769 2.301-7.718 6.329-10.32 9.882-2.658 3.688-4.274 6.065-10.893 6.846-4.315.809-9.206 1.724-13.322 5.011-4.125 3.293-6.103 7.866-7.848 11.901-1.775 4.177-2.816 6.878-9.098 9.099-4.034 1.744-8.607 3.723-11.901 7.848-3.287 4.116-4.203 9.006-5.011 13.322-.808 4.453-1.216 7.341-6.847 10.892-3.553 2.603-7.581 5.552-9.882 10.321-2.284 4.733-2.087 9.7-1.914 14.082.198 4.503.465 7.437-4.227 12.144-2.889 3.339-6.163 7.123-7.342 12.309-1.16 5.103.14 9.886 1.287 14.106 1.189 4.331 2.141 7.157-1.39 12.782-2.075 3.903-4.428 8.326-4.428 13.661s2.352 9.757 4.427 13.66c2.189 4.017 3.556 6.469 1.391 12.782-1.147 4.22-2.447 9.003-1.287 14.108 1.179 5.184 4.453 8.968 7.341 12.307 3.011 3.42 4.933 5.515 4.227 12.143-.174 4.382-.37 9.349 1.914 14.083 2.301 4.77 6.329 7.719 9.883 10.321 3.689 2.658 6.064 4.272 6.845 10.891.808 4.316 1.724 9.206 5.011 13.323 3.294 4.125 7.866 6.103 11.9 7.848 4.177 1.774 6.878 2.816 9.099 9.099 1.745 4.034 3.723 8.607 7.848 11.901 4.116 3.287 9.007 4.203 13.323 5.01 4.453.809 7.34 1.216 10.891 6.846 2.602 3.554 5.551 7.582 10.321 9.883 4.735 2.285 9.704 2.086 14.083 1.914 4.506-.196 7.435-.466 12.143 4.226 3.339 2.889 7.123 6.164 12.309 7.342 5.102 1.161 9.886-.141 14.107-1.287 4.33-1.191 7.157-2.14 12.782 1.39 3.903 2.075 8.326 4.427 13.66 4.427s9.757-2.352 13.66-4.427c4.015-2.19 6.473-3.555 12.782-1.39 4.22 1.147 9.003 2.449 14.106 1.287 5.186-1.178 8.971-4.453 12.309-7.342 3.42-3.013 5.515-4.931 12.143-4.226 4.383.176 9.348.37 14.082-1.913 4.769-2.301 7.718-6.329 10.32-9.882 2.658-3.688 4.274-6.065 10.893-6.846 4.315-.809 9.206-1.724 13.322-5.011 4.125-3.293 6.103-7.866 7.848-11.9 1.775-4.176 2.817-6.88 9.1-9.1 4.034-1.745 8.606-3.723 11.9-7.848 3.287-4.116 4.203-9.006 5.01-13.321.808-4.453 1.217-7.342 6.847-10.893 3.553-2.603 7.581-5.552 9.882-10.321 2.284-4.733 2.087-9.7 1.914-14.081-.198-4.505-.464-7.437 4.227-12.146 2.889-3.338 6.163-7.122 7.341-12.308 1.16-5.103-.14-9.886-1.287-14.107-1.19-4.331-2.14-7.156 1.39-12.782 2.075-3.902 4.427-8.325 4.427-13.66s-2.352-9.757-4.428-13.661c-2.189-4.016-3.555-6.468-1.39-12.78 1.147-4.221 2.447-9.004 1.287-14.109-1.179-5.184-4.453-8.968-7.341-12.307-1.665-1.925-3.388-3.915-3.901-5.384-.441-1.259-.443-3.299-.374-5.424 3.833-3.744 4.411-9.722 4.879-14.672.12-1.272.296-3.124.531-4.475 1.372.12 3.217.429 4.485.642 5.712.958 12.82 2.148 17.592-2.621 4.772-4.772 3.58-11.881 2.622-17.594-.213-1.267-.522-3.112-.641-4.484 1.351-.236 3.203-.411 4.476-.532 5.777-.546 12.967-1.227 16.355-7.082 3.373-5.83.39-12.379-2.008-17.641-.537-1.177-1.318-2.893-1.789-4.193 1.237-.574 2.968-1.219 4.158-1.663 5.452-2.033 12.237-4.564 13.99-11.122 1.734-6.486-2.839-12.016-6.514-16.459-.831-1.005-2.042-2.469-2.838-3.611 1.039-.866 2.523-1.924 3.546-2.652 4.754-3.384 10.666-7.597 10.666-14.407zm-68.343 186.232c0 1.598-1.359 4.154-2.673 6.625-1.765 3.319-3.765 7.081-4.252 11.453-.497 4.459.635 8.621 1.633 12.294 1.309 4.726 2.322 7.515-2.927 12.681-2.464 2.848-5.256 6.076-6.713 10.24-1.475 4.214-1.304 8.511-1.155 12.302.209 4.884.599 7.868-5.675 11.719-3.047 2.231-6.501 4.76-8.861 8.51-2.374 3.77-3.164 7.991-3.862 11.715-.903 4.873-1.156 7.796-8.132 10.176-3.474 1.502-7.411 3.206-10.554 6.349s-4.847 7.081-6.349 10.553c-1.96 4.54-2.846 7.363-10.175 8.132-3.725.698-7.947 1.489-11.716 3.862-3.75 2.361-6.279 5.814-8.509 8.861-2.877 3.977-4.491 6.57-11.719 5.675-3.792-.151-8.088-.321-12.302 1.154-4.165 1.457-7.392 4.249-10.239 6.713-3.684 3.214-5.846 5.428-12.682 2.927-3.672-.997-7.833-2.126-12.293-1.632-4.372.487-8.135 2.488-11.453 4.252-4.395 2.354-6.981 4.012-13.25 0-3.319-1.765-7.081-3.766-11.452-4.252-4.46-.496-8.622.634-12.294 1.632-4.729 1.311-7.515 2.322-12.683-2.927-2.847-2.463-6.074-5.255-10.24-6.713-4.214-1.475-8.51-1.304-12.301-1.154-4.884.211-7.869.598-11.721-5.677-2.231-3.047-4.759-6.5-8.509-8.861-3.77-2.374-7.991-3.164-11.715-3.861-4.872-.904-7.798-1.155-10.176-8.133-1.503-3.473-3.206-7.41-6.349-10.553s-7.08-4.846-10.553-6.349c-4.542-1.959-7.361-2.847-8.133-10.176-.698-3.725-1.488-7.946-3.861-11.715-2.361-3.749-5.814-6.278-8.86-8.508-3.977-2.877-6.571-4.491-5.676-11.72.15-3.791.32-8.087-1.154-12.301-1.457-4.166-4.249-7.393-6.713-10.24-3.215-3.685-5.425-5.846-2.927-12.682.998-3.672 2.129-7.834 1.633-12.292-.487-4.373-2.488-8.135-4.252-11.454-2.354-4.394-4.012-6.982 0-13.25 1.765-3.319 3.765-7.081 4.252-11.452.497-4.459-.635-8.622-1.633-12.295-1.309-4.726-2.321-7.515 2.927-12.681 2.464-2.848 5.256-6.075 6.713-10.24 1.475-4.214 1.304-8.511 1.155-12.302-.209-4.884-.599-7.868 5.675-11.719 3.047-2.231 6.501-4.76 8.861-8.509 2.374-3.77 3.165-7.992 3.862-11.716.903-4.873 1.156-7.796 8.133-10.176 3.473-1.502 7.41-3.205 10.554-6.349 3.143-3.143 4.846-7.08 6.348-10.553 1.96-4.54 2.846-7.363 10.175-8.132 3.725-.698 7.947-1.489 11.716-3.862 3.75-2.361 6.279-5.814 8.509-8.861 2.877-3.977 4.49-6.572 11.719-5.675 3.79.148 8.087.32 12.302-1.154 2.841-.994 5.238-2.611 7.383-4.319-.923 2.339-1.289 4.846-.575 7.519 1.268 4.744 5.17 7.376 9.295 9.241-17.906 4.769-34.909 13.013-49.759 24.192-3.306 2.489-3.968 7.186-1.479 10.492 1.473 1.956 3.718 2.986 5.991 2.986 1.568 0 3.151-.491 4.5-1.506 13.467-10.138 28.909-17.575 45.161-21.824-1.103 3.643-1.42 7.474.642 11.037 3.388 5.855 10.577 6.536 16.355 7.082 1.273.121 3.125.296 4.476.532-.12 1.371-.429 3.216-.642 4.484-.957 5.712-2.15 12.821 2.622 17.593 4.772 4.771 11.881 3.579 17.592 2.621 1.268-.212 3.112-.521 4.484-.641.236 1.351.411 3.203.531 4.476.547 5.777 1.227 12.967 7.083 16.356 5.829 3.371 12.378.39 17.64-2.009 1.177-.536 2.892-1.318 4.193-1.788.574 1.237 1.219 2.967 1.663 4.157 2.033 5.452 4.564 12.237 11.122 13.99 6.488 1.739 12.017-2.839 16.46-6.514 1.005-.83 2.469-2.041 3.61-2.838.866 1.039 1.923 2.523 2.652 3.545 3.385 4.75 7.599 10.662 14.409 10.662 6.811 0 11.024-5.912 14.409-10.663.728-1.021 1.785-2.505 2.652-3.544 1.14.797 2.605 2.008 3.609 2.838 2.199 1.819 4.664 3.856 7.38 5.242 6.327 15.521 9.542 31.96 9.542 48.902 0 50.133-29.351 96.27-74.775 117.539-3.748 1.754-5.363 6.214-3.609 9.962 1.274 2.72 3.973 4.317 6.79 4.317 1.064 0 2.145-.228 3.172-.709 24.567-11.503 45.375-29.638 60.175-52.446 15.197-23.422 23.23-50.622 23.23-78.662 0-17.8-3.187-35.107-9.46-51.538 2.446-2.88 3.888-6.731 5.137-10.083.444-1.19 1.089-2.919 1.663-4.157 1.3.471 3.015 1.253 4.192 1.788 1.518.692 3.146 1.429 4.83 2.052-.002 2.793.227 5.737 1.244 8.644 1.457 4.166 4.249 7.393 6.713 10.24 3.215 3.685 5.424 5.846 2.927 12.683-.998 3.672-2.129 7.835-1.633 12.292.487 4.372 2.488 8.134 4.252 11.453 1.318 2.471 2.677 5.027 2.677 6.625z" fill="#000000" style="fill: rgb(255, 255, 255);"></path><path d="m110.848 124.078c22.551 0 40.898-18.347 40.898-40.898 0-22.552-18.347-40.899-40.898-40.899s-40.898 18.347-40.898 40.899c0 22.551 18.347 40.898 40.898 40.898zm0-66.812c14.289 0 25.914 11.626 25.914 25.914s-11.625 25.913-25.914 25.913-25.914-11.624-25.914-25.913 11.625-25.914 25.914-25.914z" fill="#000000" style="fill: rgb(255, 255, 255);"></path><circle cx="110.848" cy="83.18" r="13.365" fill="#000000" style="fill: rgb(255, 255, 255);"></circle></g></svg>