<!-- icon666.com - MILLIONS vector ICONS FREE --><svg viewBox="0 -86 512.00008 512" xmlns="http://www.w3.org/2000/svg"><path d="m435.652344 113.375c-26.476563-20.945312-53.464844-37.648438-80.210938-49.652344-33.703125-15.121094-67.132812-22.789062-99.363281-22.789062-32.226563 0-65.65625 7.667968-99.359375 22.789062-26.75 12.003906-53.734375 28.707032-80.214844 49.652344-44.949218 35.5625-72.554687 70.613281-73.707031 72.089844-2.125 2.71875-2.125 6.535156 0 9.253906 1.152344 1.476562 28.757813 36.527344 73.707031 72.089844 26.480469 20.945312 53.464844 37.648437 80.214844 49.652344 33.703125 15.121093 67.132812 22.789062 99.359375 22.789062 26.316406 0 53.542969-5.128906 80.921875-15.242188 3.890625-1.4375 5.882812-5.761718 4.445312-9.652343-1.441406-3.890625-5.757812-5.878907-9.652343-4.441407-25.707031 9.496094-51.179688 14.3125-75.714844 14.3125-68.292969 0-130.128906-37.511718-169.976563-68.984374-5.871093-4.636719-11.445312-9.28125-16.707031-13.851563h45.25l21.753907 18.535156c3.117187 2.65625 7.9375 2.269531 10.589843-.847656 2.691407-3.15625 2.3125-7.898437-.84375-10.589844l-23.859375-20.328125c-1.359375-1.15625-3.085937-1.792968-4.871094-1.792968h-64.546874c-11.894532-11.3125-21.367188-21.425782-27.902344-28.761719h39.808594c3.25 11.035156 13.46875 19.121093 25.546874 19.121093 14.683594 0 26.632813-11.949218 26.632813-26.632812 0-14.6875-11.949219-26.632812-26.632813-26.632812-12.078124 0-22.292968 8.082031-25.546874 19.121093h-39.816407c6.53125-7.335937 16-17.445312 27.90625-28.761719h64.546875c1.789063 0 3.515625-.636718 4.875-1.796874l23.855469-20.328126c3.160156-2.691406 3.539063-7.429687.847656-10.589843-2.691406-3.15625-7.429687-3.535157-10.589843-.847657l-21.753907 18.539063h-45.253906c5.179687-4.5 10.660156-9.070313 16.433594-13.636719 39.910156-31.570312 101.84375-69.203125 170.253906-69.203125 68.296875 0 130.132813 37.515625 169.976563 68.984375 5.871093 4.636719 11.445312 9.28125 16.707031 13.855469h-45.25l-21.753907-18.535156c-3.15625-2.691407-7.898437-2.3125-10.589843.84375-2.691407 3.160156-2.3125 7.898437.847656 10.589843l23.855469 20.328126c1.363281 1.160156 3.085937 1.796874 4.875 1.796874h64.542968c11.894532 11.3125 21.367188 21.421876 27.90625 28.761719h-39.808593c-3.253907-11.039062-13.472657-19.121093-25.546875-19.121093-14.6875 0-26.632813 11.949218-26.632813 26.632812s11.945313 26.632812 26.632813 26.632812c12.074218 0 22.292968-8.082031 25.546875-19.121093h39.796875c-6.539063 7.332031-16.011719 17.433593-27.9375 28.761719h-64.5c-1.789063 0-3.515625.636718-4.875 1.792968l-23.855469 20.332032c-3.160156 2.6875-3.539063 7.429687-.847656 10.589843 2.65625 3.113281 7.472656 3.5 10.589843.84375l21.753907-18.535156h45.195312c-22.75 19.746094-51.480469 40.992187-84.09375 56.984375-3.722656 1.828125-5.261719 6.328125-3.4375 10.050781 1.828125 3.726563 6.328125 5.265625 10.054688 3.4375 84.242187-41.3125 141.726562-114.066406 144.132812-117.144531 2.125-2.71875 2.125-6.535156 0-9.253906-1.15625-1.476563-28.757812-36.527344-73.710937-72.089844zm-345.332032 65.109375c6.402344 0 11.609376 5.207031 11.609376 11.609375 0 6.398438-5.207032 11.605469-11.609376 11.605469-6.402343 0-11.609374-5.207031-11.609374-11.605469 0-6.402344 5.207031-11.609375 11.609374-11.609375zm331.519532 23.214844c-6.402344 0-11.609375-5.207031-11.609375-11.609375 0-6.398438 5.207031-11.605469 11.609375-11.605469s11.609375 5.207031 11.609375 11.605469c0 6.402344-5.207031 11.609375-11.609375 11.609375zm0 0" fill="#000000" style="fill: rgb(255, 255, 255);"></path><path d="m153.679688 169.125c-4.109376-.546875-7.894532 2.328125-8.449219 6.441406-.644531 4.777344-.96875 9.664063-.96875 14.523438 0 59.464844 48.375 107.839844 107.835937 107.839844 59.460938 0 107.835938-48.375 107.835938-107.839844 0-59.460938-48.375-107.835938-107.835938-107.835938-41.722656 0-80.097656 24.4375-97.757812 62.261719-1.757813 3.757813-.132813 8.230469 3.628906 9.984375 3.757812 1.753906 8.226562.128906 9.984375-3.628906 15.199219-32.558594 48.230469-53.59375 84.144531-53.59375 51.179688 0 92.8125 41.636718 92.8125 92.8125 0 51.179687-41.632812 92.816406-92.8125 92.816406-51.175781 0-92.8125-41.636719-92.8125-92.816406 0-4.191406.28125-8.402344.835938-12.519532.554687-4.109374-2.332032-7.890624-6.441406-8.445312zm0 0" fill="#000000" style="fill: rgb(255, 255, 255);"></path><path d="m273.203125 143.066406c-.734375-2.355468-2.582031-4.199218-4.9375-4.933594-5.222656-1.621093-10.660156-2.441406-16.167969-2.441406-29.996094 0-54.402344 24.402344-54.402344 54.402344 0 29.996094 24.40625 54.402344 54.402344 54.402344 30 0 54.402344-24.40625 54.402344-54.402344 0-7.390625-1.460938-14.5625-4.339844-21.316406-.96875-2.269532-2.988281-3.921875-5.40625-4.414063-2.417968-.5-4.921875.226563-6.703125 1.933594-2.289062 2.195313-5.292969 3.402344-8.457031 3.402344-6.75 0-12.238281-5.488281-12.238281-12.238281 0-2.753907.898437-5.355469 2.59375-7.523438 1.523437-1.945312 1.992187-4.515625 1.253906-6.871094zm8.390625 41.65625c3.203125 0 6.328125-.554687 9.269531-1.617187.40625 2.289062.613281 4.621093.613281 6.984375 0 21.714844-17.664062 39.378906-39.378906 39.378906-21.710937 0-39.375-17.664062-39.375-39.378906 0-21.710938 17.664063-39.375 39.375-39.375 1.019532 0 2.03125.035156 3.042969.113281-.535156 2.144531-.808594 4.363281-.808594 6.632813 0 15.03125 12.230469 27.261718 27.261719 27.261718zm0 0" fill="#000000" style="fill: rgb(255, 255, 255);"></path><path d="m7.511719 135.886719c1.878906 0 3.761719-.699219 5.21875-2.109375 13.511719-13.050782 27.574219-25.386719 41.796875-36.667969 3.25-2.578125 3.796875-7.304687 1.21875-10.554687s-7.304688-3.792969-10.554688-1.214844c-14.601562 11.582031-29.035156 24.242187-42.898437 37.632812-2.984375 2.882813-3.066407 7.636719-.183594 10.621094 1.472656 1.527344 3.4375 2.292969 5.402344 2.292969zm0 0" fill="#000000" style="fill: rgb(255, 255, 255);"></path><path d="m78.242188 79.375c2.511718-1.761719 5.054687-3.515625 7.5625-5.203125 58.203124-39.25 115.492187-59.148437 170.273437-59.148437 45.324219 0 92.699219 13.761718 140.804687 40.898437 34.941407 19.714844 69.386719 45.859375 102.386719 77.710937 2.949219 2.839844 7.78125 2.757813 10.625-.1875 2.878907-2.984374 2.796875-7.742187-.191406-10.621093-33.914063-32.738281-69.390625-59.648438-105.441406-79.984375-50.382813-28.425782-100.238281-42.839844-148.183594-42.839844-57.828125 0-117.941406 20.765625-178.671875 61.714844-2.589844 1.742187-5.210938 3.550781-7.800781 5.371094-3.394531 2.382812-4.210938 7.070312-1.828125 10.464843 2.386718 3.390625 7.070312 4.210938 10.464844 1.824219zm0 0" fill="#000000" style="fill: rgb(255, 255, 255);"></path></svg>