<svg width="25" height="25" fill="none" xmlns="http://www.w3.org/2000/svg"><path d="m24.887 19.928-.124-.375c-.295-.877-1.26-1.79-2.148-2.031l-3.284-.897c-.891-.243-2.162.083-2.813.735l-1.19 1.189a12.61 12.61 0 0 1-8.872-8.876l1.188-1.189c.652-.652.978-1.92.735-2.812l-.895-3.286C7.24 1.496 6.326.53 5.452.239L5.077.113C4.201-.18 2.952.116 2.3.768L.522 2.548c-.318.316-.52 1.22-.52 1.223a21.006 21.006 0 0 0 6.144 15.08A21.005 21.005 0 0 0 21.177 25c.03 0 .96-.2 1.277-.516l1.779-1.778c.651-.652.946-1.901.654-2.777z" fill="#000"/></svg>