<svg width="82" height="58" viewBox="0 0 82 58" fill="none" xmlns="http://www.w3.org/2000/svg">
<path d="M77.5293 24.5027H65.2878C63.0388 24.5027 61.2074 26.3356 61.2074 28.5865C61.2074 39.841 52.0503 49.0054 40.8049 49.0054C35.3589 49.0054 30.2342 46.8831 26.3786 43.0244C24.7882 41.4327 22.2017 41.4327 20.6113 43.0244C19.0209 44.6161 19.0209 47.2046 20.6113 48.7964C26.0091 54.1985 33.1741 57.1729 40.8049 57.1729C55.1669 57.1729 67.0871 46.4972 69.0792 32.6702H77.5293C79.7784 32.6702 81.6098 30.8374 81.6098 28.5865C81.6098 26.3356 79.7784 24.5027 77.5293 24.5027Z" fill="#3D8E30" fill-opacity="0.8"/>
<path d="M40.8049 8.16755C46.2509 8.16755 51.3756 10.2898 55.2312 14.1485C56.8216 15.7402 59.4081 15.7402 60.9985 14.1485C62.589 12.5568 62.589 9.96827 60.9985 8.37656C55.6007 2.9744 48.4358 0 40.8049 0C26.4429 0 14.5227 10.6757 12.5306 24.5027H4.08049C1.8314 24.5027 0 26.3355 0 28.5864C0 30.8373 1.8314 32.6702 4.08049 32.6702H16.322C18.5711 32.6702 20.4025 30.8373 20.4025 28.5864C20.4025 17.3319 29.5595 8.16755 40.8049 8.16755Z" fill="#3D8E30" fill-opacity="0.8"/>
<path d="M40.8047 40.8379C47.5655 40.8379 53.0461 35.3528 53.0461 28.5865C53.0461 21.8203 47.5655 16.3352 40.8047 16.3352C34.0439 16.3352 28.5632 21.8203 28.5632 28.5865C28.5632 35.3528 34.0439 40.8379 40.8047 40.8379Z" fill="#3D8E30"/>
</svg>
