
        <svg xmlns="http://www.w3.org/2000/svg" xmlns:xlink="http://www.w3.org/1999/xlink" version="1.1" width="3214.285714285714" 
        height="2384.6072313891755" viewBox="0 0 3214.285714285714 2384.6072313891755">
			
			<g transform="scale(10.714285714285714) translate(10, 10)">
				<defs id="SvgjsDefs10840"></defs><g id="SvgjsG10841" featureKey="mugSzh-0" transform="matrix(0.3248031437397003,0,0,0.3248031437397003,57.3503937007874,-25.399605307992047)" fill="#3d8e30"><g xmlns="http://www.w3.org/2000/svg"><path d="M484.6,230.6h-76.2c-14,0-25.4,11.4-25.4,25.4c0,70-57,127-127,127c-33.9,0-65.8-13.2-89.8-37.2c-9.9-9.9-26-9.9-35.9,0   c-9.9,9.9-9.9,26,0,35.9c33.6,33.6,78.2,52.1,125.7,52.1c89.4,0,163.6-66.4,176-152.4h52.6c14,0,25.4-11.4,25.4-25.4   C510,242,498.6,230.6,484.6,230.6z"></path><path d="M256,129c33.9,0,65.8,13.2,89.8,37.2c9.9,9.9,26,9.9,35.9,0c9.9-9.9,9.9-26,0-35.9C348.1,96.7,303.5,78.2,256,78.2   c-89.4,0-163.6,66.4-176,152.4H27.4C13.4,230.6,2,242,2,256c0,14,11.4,25.4,25.4,25.4h76.2c14,0,25.4-11.4,25.4-25.4   C129,186,186,129,256,129z"></path><circle cx="256" cy="256" r="76.2"></circle></g></g><g id="SvgjsG10842" featureKey="PPkF4s-0" transform="matrix(2.522522449493408,0,0,2.522522449493408,-3.8846843214509756,124.34594703564707)" fill="#ffffff"><path d="M12.38 20 l-10.84 0 l0 -14.62 l3.18 0 l0 11.88 l7.66 0 l0 2.74 z M16.59 19.49 q-1.37 -0.77 -2.17 -2.09 t-0.8 -2.88 q0 -1.54 0.8 -2.86 t2.17 -2.09 t2.99 -0.77 t3 0.77 t2.19 2.09 t0.81 2.86 q0 1.56 -0.81 2.88 t-2.19 2.09 t-3 0.77 t-2.99 -0.77 z M18.06 11.83 q-0.7 0.41 -1.1 1.12 t-0.4 1.57 q0 0.9 0.39 1.61 t1.08 1.12 t1.55 0.41 q0.84 0 1.53 -0.41 t1.09 -1.13 t0.4 -1.6 q0 -0.86 -0.4 -1.57 t-1.09 -1.12 t-1.53 -0.41 q-0.82 0 -1.52 0.41 z M37.85 22.77 q-1.47 1.37 -4.09 1.37 q-3.14 0 -5.26 -1.66 l1.46 -2.12 q0.68 0.54 1.61 0.88 t1.97 0.34 q2.82 0 2.82 -2.56 l0 -0.18 q-1.2 0.98 -3.08 0.98 q-1.74 0 -3.06 -0.73 t-2.02 -1.99 t-0.7 -2.78 q0 -1.54 0.7 -2.79 t2.01 -1.99 t3.07 -0.74 q1.88 0 3.08 0.98 l0 -0.78 l2.96 0 l0 10.02 q0 2.38 -1.47 3.75 z M34.99 16.91 q0.69 -0.39 1.09 -1.08 t0.4 -1.51 q0 -0.84 -0.4 -1.52 t-1.09 -1.07 t-1.53 -0.39 q-1.36 0 -2.19 0.85 t-0.83 2.13 q0 1.32 0.81 2.15 t2.21 0.83 q0.84 0 1.53 -0.39 z M45.08 7.369999999999999 q-0.48 0.47 -1.16 0.47 q-0.7 0 -1.19 -0.47 t-0.49 -1.15 q0 -0.66 0.49 -1.13 t1.19 -0.47 q0.68 0 1.16 0.47 t0.48 1.13 q0 0.68 -0.48 1.15 z M42.42 9.02 l3 0 l0 10.98 l-3 0 l0 -10.98 z M50.86 19.51 q-1.38 -0.77 -2.19 -2.09 t-0.81 -2.88 t0.81 -2.87 t2.18 -2.08 t2.99 -0.77 q1.74 0 3.15 0.83 t2.25 2.37 l-2.7 1.06 q-0.48 -0.82 -1.18 -1.23 t-1.52 -0.41 q-1.3 0 -2.15 0.88 t-0.85 2.22 t0.86 2.22 t2.16 0.88 q1.8 0 2.78 -1.6 l2.54 1 q-1.58 3.24 -5.32 3.24 q-1.62 0 -3 -0.77 z M68.88 14.46 l0 5.54 l-3.16 0 l0 -5.54 l-5.76 -9.06 l3.7 0 l3.64 5.9 l3.68 -5.9 l3.7 0 z M78.44 7.369999999999999 q-0.48 0.47 -1.16 0.47 q-0.7 0 -1.19 -0.47 t-0.49 -1.15 q0 -0.66 0.49 -1.13 t1.19 -0.47 q0.68 0 1.16 0.47 t0.48 1.13 q0 0.68 -0.48 1.15 z M75.78 9.02 l3 0 l0 10.98 l-3 0 l0 -10.98 z M84.55 19.74 q-1.37 -0.54 -2.35 -1.83 t-0.98 -3.37 t0.99 -3.36 t2.37 -1.82 t2.62 -0.54 q1.44 0 2.74 0.64 t2.13 1.88 t0.87 2.94 q0 0.52 -0.02 0.9 t-0.04 0.48 l-8.68 0 q0.24 1.16 1.2 1.58 t1.8 0.42 q1.08 0 1.72 -0.39 t1.1 -0.89 l2.32 1.34 q-1.88 2.56 -5.14 2.56 q-1.28 0 -2.65 -0.54 z M85.16 12.05 q-0.78 0.61 -0.88 1.49 l5.5 0 q-0.06 -0.52 -0.4 -1 t-0.91 -0.79 t-1.29 -0.31 q-1.24 0 -2.02 0.61 z M95.38000000000001 4.880000000000001 l3 0 l0 15.12 l-3 0 l0 -15.12 z M109.58 18.9 q-0.38 0.52 -1.31 0.93 t-2.03 0.41 q-1.7 0 -2.95 -0.76 t-1.91 -2.07 t-0.66 -2.91 t0.66 -2.91 t1.91 -2.07 t2.95 -0.76 q1.14 0 2.01 0.39 t1.33 0.99 l0 -5.26 l2.96 0 l0 15.12 l-2.96 0 l0 -1.1 z M108.88 12.25 q-0.82 -0.87 -2.2 -0.87 q-1.4 0 -2.21 0.87 t-0.81 2.25 q0 1.34 0.83 2.22 t2.19 0.88 q1.4 0 2.21 -0.83 t0.81 -2.27 q0 -1.38 -0.82 -2.25 z"></path></g><g id="SvgjsG10843" featureKey="uwAHB0-0" transform="matrix(0.5082890391349792,0,0,0.5082890391349792,35.01391933908759,192.21457690583844)" fill="#ffffff"><path d="M3.26 5.84 l0 14.16 l-1.32 0 l0 -14.16 l1.32 0 z M19.064 5.84 l8.62 12.4 l0.04 0 l0 -12.4 l1.32 0 l0 14.16 l-1.7 0 l-8.62 -12.4 l-0.04 0 l0 12.4 l-1.32 0 l0 -14.16 l1.7 0 z M47.188 5.48 q2.46 0 3.86 1.78 l-1.14 0.82 q-1.04 -1.4 -2.76 -1.4 q-1.4 0 -2.27 0.72 t-0.91 1.96 q0 1.08 0.66 1.75 t2.3 1.13 q2.16 0.64 2.88 1.13 t1.09 1.21 t0.37 1.8 q0 1.72 -1.23 2.83 t-3.17 1.15 q-3.06 0 -4.6 -2.14 l1.26 -0.84 q1.06 1.76 3.24 1.78 q1.42 0 2.3 -0.79 t0.88 -1.99 q0 -0.7 -0.25 -1.15 t-0.76 -0.78 t-1.3 -0.6 t-1.85 -0.63 q-1.6 -0.52 -2.37 -1.46 t-0.77 -2.4 q0 -1.72 1.29 -2.8 t3.25 -1.08 z M68.872 12.08 q1.28 0 2.1 -0.63 t0.84 -1.87 q0 -1.16 -0.82 -1.85 t-2.18 -0.69 l-3 0 l0 5.04 l3.06 0 z M68.532 5.84 q2.16 0 3.36 0.96 t1.24 2.78 q0 1.7 -1.16 2.69 t-3.02 1.01 l-3.14 0 l0 6.72 l-1.32 0 l0 -14.16 l4.04 0 z M87.516 5.84 l0 14.16 l-1.32 0 l0 -14.16 l1.32 0 z M105.84 12.08 q1.54 0 2.38 -0.69 t0.84 -1.83 t-0.82 -1.82 t-2.44 -0.7 l-2.86 0 l0 5.04 l2.9 0 z M105.44000000000001 5.84 q4.9 0 4.94 3.72 q0 3.14 -3.62 3.64 l4.12 6.8 l-1.5 0 l-3.98 -6.72 l-2.46 0 l0 6.72 l-1.32 0 l0 -14.16 l3.82 0 z M132.364 5.84 l0 1.2 l-7.34 0 l0 5.04 l6.88 0 l0 1.2 l-6.88 0 l0 5.52 l7.66 0 l0 1.2 l-8.98 0 l0 -14.16 l8.66 0 z M149.74800000000002 18.8 q3.04 0 4.8 -1.54 t1.78 -4.24 q0 -2.88 -1.75 -4.42 t-4.89 -1.56 l-2.76 0 l0 11.76 l2.82 0 z M150.02800000000002 5.84 q3.56 0 5.57 1.92 t2.05 5.26 q0 1.96 -0.89 3.55 t-2.56 2.51 t-4.09 0.92 l-4.5 0 l0 -14.16 l4.42 0 z M190.69600000000003 18.8 q1.7 0 2.6 -0.73 t0.9 -1.99 q0 -1.36 -0.93 -2.14 t-2.43 -0.78 l-3.26 0 l0 5.64 l3.12 0 z M190.39600000000004 11.96 q1.44 0 2.31 -0.62 t0.87 -1.76 q0 -2.48 -3 -2.54 l-3 0 l0 4.92 l2.82 0 z M190.43600000000004 5.84 q2.22 0 3.33 0.9 t1.13 2.84 q0 1.12 -0.66 1.91 t-1.88 1.03 l0 0.04 q1.38 0.08 2.26 1.04 t0.9 2.44 q0 1.88 -1.25 2.91 t-3.45 1.05 l-4.56 0 l0 -14.16 l4.18 0 z M208.60000000000005 5.84 l4.28 6.72 l4.38 -6.72 l1.48 0 l-5.2 8.06 l0 6.1 l-1.32 0 l0 -6.1 l-5.2 -8.06 l1.58 0 z M247.52800000000005 5.84 l0 14.16 l-1.32 0 l0 -14.16 l1.32 0 z M263.33200000000005 5.84 l8.62 12.4 l0.04 0 l0 -12.4 l1.32 0 l0 14.16 l-1.7 0 l-8.62 -12.4 l-0.04 0 l0 12.4 l-1.32 0 l0 -14.16 l1.7 0 z M291.37600000000003 18.8 q3.04 0 4.8 -1.54 t1.78 -4.24 q0 -2.88 -1.75 -4.42 t-4.89 -1.56 l-2.76 0 l0 11.76 l2.82 0 z M291.65600000000006 5.84 q3.56 0 5.57 1.92 t2.05 5.26 q0 1.96 -0.89 3.55 t-2.56 2.51 t-4.09 0.92 l-4.5 0 l0 -14.16 l4.42 0 z M313.52000000000004 5.84 l0 8.5 q0 2.3 0.95 3.54 t2.89 1.28 q3.8 0 3.84 -5.02 l0 -8.3 l1.32 0 l0 8.64 q0 2.78 -1.3 4.32 t-3.86 1.56 q-2.52 0 -3.83 -1.53 t-1.33 -4.25 l0 -8.74 l1.32 0 z M340.40400000000005 5.48 q2.46 0 3.86 1.78 l-1.14 0.82 q-1.04 -1.4 -2.76 -1.4 q-1.4 0 -2.27 0.72 t-0.91 1.96 q0 1.08 0.66 1.75 t2.3 1.13 q2.16 0.64 2.88 1.13 t1.09 1.21 t0.37 1.8 q0 1.72 -1.23 2.83 t-3.17 1.15 q-3.06 0 -4.6 -2.14 l1.26 -0.84 q1.06 1.76 3.24 1.78 q1.42 0 2.3 -0.79 t0.88 -1.99 q0 -0.7 -0.25 -1.15 t-0.76 -0.78 t-1.3 -0.6 t-1.85 -0.63 q-1.6 -0.52 -2.37 -1.46 t-0.77 -2.4 q0 -1.72 1.29 -2.8 t3.25 -1.08 z M367.00800000000004 5.84 l0 1.2 l-4.84 0 l0 12.96 l-1.32 0 l0 -12.96 l-4.84 0 l0 -1.2 l11 0 z M383.63200000000006 12.08 q1.54 0 2.38 -0.69 t0.84 -1.83 t-0.82 -1.82 t-2.44 -0.7 l-2.86 0 l0 5.04 l2.9 0 z M383.232 5.84 q4.9 0 4.94 3.72 q0 3.14 -3.62 3.64 l4.12 6.8 l-1.5 0 l-3.98 -6.72 l-2.46 0 l0 6.72 l-1.32 0 l0 -14.16 l3.82 0 z M401.016 5.84 l4.28 6.72 l4.38 -6.72 l1.48 0 l-5.2 8.06 l0 6.1 l-1.32 0 l0 -6.1 l-5.2 -8.06 l1.58 0 z"></path></g>
			</g>
		</svg>
	