<svg width="199" height="58" fill="none" xmlns="http://www.w3.org/2000/svg"><path d="M77.53 24.503H65.287a4.088 4.088 0 0 0-4.08 4.083c0 11.255-9.158 20.42-20.403 20.42a20.261 20.261 0 0 1-14.426-5.982 4.08 4.08 0 0 0-5.768 0 4.088 4.088 0 0 0 0 5.772c5.398 5.403 12.563 8.377 20.194 8.377 14.362 0 26.282-10.676 28.274-24.503h8.45c2.25 0 4.08-1.833 4.08-4.084a4.088 4.088 0 0 0-4.08-4.083zM40.805 8.168c5.446 0 10.57 2.122 14.426 5.98a4.08 4.08 0 0 0 5.767 0 4.088 4.088 0 0 0 0-5.771C55.602 2.974 48.437 0 40.805 0 26.443 0 14.523 10.676 12.53 24.503H4.08A4.088 4.088 0 0 0 0 28.586a4.088 4.088 0 0 0 4.08 4.084h12.242c2.25 0 4.08-1.833 4.08-4.084 0-11.254 9.157-20.418 20.403-20.418z" fill="#3D8E30" fill-opacity=".8"/><path d="M40.805 40.838c6.76 0 12.241-5.485 12.241-12.252 0-6.766-5.48-12.25-12.241-12.25-6.761 0-12.242 5.484-12.242 12.25 0 6.767 5.481 12.252 12.242 12.252z" fill="#3D8E30"/><path d="M101.381 34.356H90.815v-14.26h3.1v11.587h7.466v2.673zm4.103-.497a5.689 5.689 0 0 1-2.115-2.039 5.322 5.322 0 0 1-.78-2.81c0-1 .26-1.93.78-2.789a5.689 5.689 0 0 1 2.115-2.038 5.84 5.84 0 0 1 2.914-.752c1.053 0 2.027.25 2.924.752.896.5 1.608 1.18 2.134 2.038.527.858.79 1.788.79 2.79 0 1.014-.263 1.95-.79 2.809a5.742 5.742 0 0 1-2.134 2.039c-.897.5-1.871.75-2.924.75a5.842 5.842 0 0 1-2.914-.75zm1.432-7.472a2.89 2.89 0 0 0-1.072 1.092c-.26.462-.389.973-.389 1.532 0 .585.126 1.108.38 1.57.253.462.604.826 1.052 1.093.449.266.952.4 1.511.4a2.86 2.86 0 0 0 1.491-.4 2.881 2.881 0 0 0 1.062-1.102c.26-.469.39-.989.39-1.561 0-.56-.13-1.07-.39-1.532a2.9 2.9 0 0 0-1.062-1.092 2.86 2.86 0 0 0-1.491-.4 2.88 2.88 0 0 0-1.482.4zm19.289 10.671c-.956.89-2.284 1.336-3.987 1.336-2.04 0-3.749-.54-5.126-1.619l1.423-2.068c.441.351.965.637 1.569.859a5.541 5.541 0 0 0 1.92.331c1.832 0 2.748-.832 2.748-2.497v-.175c-.779.637-1.78.956-3.002.956-1.13 0-2.124-.238-2.982-.712a4.922 4.922 0 0 1-1.969-1.942c-.455-.819-.682-1.723-.682-2.711 0-1.002.227-1.909.682-2.722.455-.813 1.108-1.46 1.959-1.94.851-.482 1.849-.723 2.992-.723 1.222 0 2.223.319 3.002.956v-.76h2.885V33.4c0 1.548-.477 2.767-1.432 3.658zm-2.788-5.716a2.886 2.886 0 0 0 1.452-2.526c0-.547-.13-1.04-.39-1.483a2.818 2.818 0 0 0-1.062-1.044 2.974 2.974 0 0 0-1.491-.38c-.884 0-1.595.276-2.135.83-.539.552-.809 1.244-.809 2.077 0 .858.264 1.557.79 2.097s1.244.81 2.154.81c.546 0 1.043-.127 1.491-.381zm9.834-9.305a1.556 1.556 0 0 1-1.13.458c-.455 0-.842-.153-1.16-.459a1.493 1.493 0 0 1-.478-1.121c0-.43.159-.797.478-1.102a1.612 1.612 0 0 1 1.16-.459c.441 0 .818.153 1.13.459.312.305.468.673.468 1.102 0 .442-.156.816-.468 1.122zm-2.592 1.609h2.923v10.71h-2.923v-10.71zm8.226 10.232a5.738 5.738 0 0 1-2.135-2.038 5.276 5.276 0 0 1-.789-2.81c0-1.014.263-1.947.789-2.8a5.789 5.789 0 0 1 2.125-2.028 5.84 5.84 0 0 1 2.914-.751c1.131 0 2.154.27 3.07.81.916.54 1.647 1.31 2.193 2.311l-2.632 1.034c-.311-.533-.695-.933-1.15-1.2a2.874 2.874 0 0 0-1.481-.4c-.845 0-1.543.287-2.096.859-.552.572-.828 1.294-.828 2.165 0 .872.279 1.593.838 2.166.559.572 1.261.858 2.105.858 1.17 0 2.073-.52 2.71-1.56l2.475.975c-1.026 2.107-2.754 3.16-5.185 3.16a5.894 5.894 0 0 1-2.923-.75zm17.562-4.926v5.404h-3.079v-5.404l-5.614-8.837h3.606l3.548 5.755 3.586-5.755h3.606l-5.653 8.837zm9.318-6.916a1.557 1.557 0 0 1-1.131.459c-.454 0-.841-.153-1.159-.459a1.493 1.493 0 0 1-.478-1.121c0-.43.159-.797.478-1.102a1.612 1.612 0 0 1 1.159-.459c.442 0 .819.153 1.131.459.312.305.468.673.468 1.102 0 .442-.156.816-.468 1.122zm-2.593 1.61h2.924v10.71h-2.924v-10.71zm8.548 10.456c-.89-.35-1.654-.946-2.29-1.784-.637-.84-.956-1.935-.956-3.288 0-1.352.322-2.445.965-3.277.644-.832 1.414-1.424 2.31-1.775.897-.352 1.748-.527 2.554-.527.935 0 1.826.208 2.67.624a5.258 5.258 0 0 1 2.076 1.834c.54.806.822 1.762.848 2.868 0 .338-.006.63-.019.878a4.465 4.465 0 0 1-.039.468h-8.46c.156.754.546 1.268 1.169 1.54.624.274 1.209.41 1.755.41.702 0 1.26-.126 1.676-.38a4.93 4.93 0 0 0 1.072-.868l2.261 1.307c-1.221 1.665-2.891 2.497-5.009 2.497-.832 0-1.693-.175-2.583-.526zm.595-7.5c-.507.396-.793.88-.858 1.453h5.36a2.09 2.09 0 0 0-.39-.976 2.56 2.56 0 0 0-.886-.77 2.59 2.59 0 0 0-1.258-.303c-.805 0-1.462.199-1.968.596zm9.96-6.994h2.924v14.748h-2.924V19.608zm13.84 13.675c-.247.338-.672.64-1.277.907-.604.267-1.263.4-1.978.4-1.105 0-2.063-.247-2.875-.741a4.89 4.89 0 0 1-1.862-2.02c-.429-.851-.643-1.797-.643-2.838 0-1.04.214-1.986.643-2.838a4.89 4.89 0 0 1 1.862-2.02c.812-.493 1.77-.74 2.875-.74.741 0 1.394.126 1.959.38.565.253.997.575 1.296.965v-5.13H199v14.748h-2.885v-1.073zm-.682-6.486c-.533-.566-1.248-.849-2.144-.849-.91 0-1.628.283-2.154.849-.527.565-.79 1.297-.79 2.194 0 .872.27 1.593.809 2.166.54.572 1.251.858 2.135.858.909 0 1.627-.27 2.154-.81.526-.54.789-1.277.789-2.214 0-.897-.266-1.629-.799-2.194z" fill="#fff"/></svg>