<svg width="25" height="25" fill="none" xmlns="http://www.w3.org/2000/svg"><path d="M24.408 20.05A10.833 10.833 0 0 0 20 7.408a3.335 3.335 0 0 0-.225-.958l1.058-1.058a.833.833 0 0 0 0-1.184l-.108-.108L22 2.825a.833.833 0 0 0 0-1.183l-1.433-1.4A.833.833 0 0 0 20 0a.833.833 0 0 0-.592.242l-1.291 1.283L18 1.408a.833.833 0 0 0-1.175 0l-7 7a.833.833 0 0 0 0 1.15l-1.083 1.084a.832.832 0 0 0 0 1.183l1.666 1.667a.834.834 0 0 0 1.175 0l1.084-1.084a.833.833 0 0 0 1.15 0l1.575-1.575c.403.171.837.26 1.275.259a3.335 3.335 0 0 0 1.4-.325 6.966 6.966 0 0 1 2.2 9.233h-11.8l-.575-1.25H12.5a.833.833 0 0 0 .833-.833v-2.5a.834.834 0 0 0-.833-.834H.833a.833.833 0 0 0-.833.834v2.5a.833.833 0 0 0 .833.833h1.534L2.95 20H.833a.833.833 0 0 0-.833.833v3.334A.833.833 0 0 0 .833 25h23.334a.833.833 0 0 0 .833-.833v-3.334a.833.833 0 0 0-.592-.783zM15.717 9.092c-.1-.077-.195-.16-.284-.25l-.05-.067a1.756 1.756 0 0 1-.166-.242l-.042-.083a1.458 1.458 0 0 1-.1-.267V8.1a1.667 1.667 0 0 1 2-2h.092c.088.026.175.06.258.1l.092.05c.082.045.16.098.233.158a.226.226 0 0 1 .067.059c.093.081.177.174.25.275.189.292.282.635.266.983V7.833a1.665 1.665 0 0 1-.2.7 1.057 1.057 0 0 1-.2.275c-.08.09-.17.17-.266.242-.279.195-.61.3-.95.3a1.717 1.717 0 0 1-1-.258z" fill="#000"/></svg>