<!-- icon666.com - MILLIONS vector ICONS FREE --><svg viewBox="0 0 32 32" xmlns="http://www.w3.org/2000/svg"><g id="_x30_7"><path d="m25 12c-.461731 0-.8942261.1134644-1.2853394.3005981l-.9620361-.9620361c.1506348-.4205932.2473755-.8668823.2473755-1.338562s-.0967407-.9179688-.2473755-1.338562l.9620361-.9620361c.3911133.1871337.8236084.3005981 1.2853394.3005981 1.6542969 0 3-1.3457031 3-3s-1.3457031-3-3-3-3 1.3457031-3 3c0 .461731.1134644.8942261.3005981 1.2853394l-.7003174.7003174c-.7012328-.605774-1.6030883-.9856568-2.6002807-.9856568s-1.8990479.3798828-2.6002808.9856567l-.7003174-.7003174c.1871338-.3911132.3005982-.8236083.3005982-1.2853393 0-1.6542969-1.3457031-3-3-3s-3 1.3457031-3 3 1.3457031 3 3 3c.461731 0 .8942261-.1134644 1.2853394-.3005981l.9620361.9620361c-.1506348.4205933-.2473755.8668823-.2473755 1.338562s.0967407.9179688.2473755 1.338562l-.9620361.9620361c-.3911133-.1871337-.8236084-.3005981-1.2853394-.3005981-1.6542969 0-3 1.3457031-3 3s1.3457031 3 3 3 3-1.3457031 3-3c0-.461731-.1134644-.8942261-.3005981-1.2853394l.7003174-.7003174c.7012328.605774 1.6030883.9856568 2.6002807.9856568s1.8990479-.3798828 2.6002808-.9856567l.7003174.7003174c-.1871338.3911132-.3005982.8236083-.3005982 1.2853393 0 1.6542969 1.3457031 3 3 3s3-1.3457031 3-3-1.3457031-3-3-3z"></path><path d="m4 17h-2v12h2c.5523071 0 1-.4477539 1-1v-10c0-.5523071-.4476929-1-1-1z"></path><path d="m28.8540039 18.3375244c-.722168-.4315796-1.597168-.4501343-2.3364258-.0507813l-6.5485229 3.5202637c-.1528931 1.2331543-1.1953736 2.1937867-2.4690552 2.1937867h-4.0200195c-.2763672 0-.5-.2235718-.5-.499939 0-.2763062.2236328-.499939.5-.499939h4.0200195c.8271484 0 1.5-.6727295 1.5-1.4997559 0-.8113403-.6486206-1.4703369-1.4541016-1.4951782-.2993164-.003479-5.1318359-.0046387-5.1318359-.0046387l-1.7070313-1.7067871c-.1875-.1875-.4418945-.2929077-.7070313-.2929077h-3.9999999v10.0005493h1.765625l3.234375.9979249c1.34375.4320678 2.7810059.9998779 4.3735352.9998779 1.4399414 0 2.8588867-.477478 4.0834961-1.4158325l9.5234375-6.3028564c.6381835-.437439 1.0195312-1.1599732 1.0195312-1.9313965 0-.8328858-.4282227-1.5847168-1.1459961-2.0123902z"></path></g></svg>