<?xml version="1.0" encoding="UTF-8"?>
<svg id="_Слой_1" data-name="Слой 1" xmlns="http://www.w3.org/2000/svg" version="1.1" viewBox="0 0 152.54 73.97">
  <defs>
    <style>
      .cls-1 {
        fill: #e63335;
      }

      .cls-1, .cls-2, .cls-3, .cls-4, .cls-5, .cls-6, .cls-7, .cls-8, .cls-9, .cls-10, .cls-11, .cls-12 {
        stroke-width: 0px;
      }

      .cls-2 {
        fill: #17a7dd;
      }

      .cls-2, .cls-3, .cls-6, .cls-7 {
        fill-rule: evenodd;
      }

      .cls-3 {
        fill: #e43535;
      }

      .cls-4 {
        fill: #e1f1f9;
      }

      .cls-5 {
        fill: #e22a2a;
      }

      .cls-6, .cls-10 {
        fill: #c7dae5;
      }

      .cls-7, .cls-12 {
        fill: #1b3968;
      }

      .cls-8 {
        fill: #1aaadf;
      }

      .cls-9 {
        fill: #fff;
      }

      .cls-11 {
        fill: #339fd9;
      }
    </style>
  </defs>
  <path class="cls-2" d="M34.02,37.22l-.2-.04c-.67,1.68-1.61,3.23-2.75,4.58,2.85,3,6.86,4.86,11.32,4.86,6.6,0,12.24-4.08,14.53-9.87-2.86,3.18-7,5.18-11.62,5.18-4.11,0-8.73-1.3-11.27-4.72"/>
  <path class="cls-7" d="M54.92,26.65c0,4.23-1.68,8.07-4.41,10.88-1.2,1.48-2.79,2.63-4.61,3.28-1.1.4-2.28.62-3.52.62-.98,0-1.94-.14-2.84-.4,1.15.4,2.35.65,3.54.79.74.08,1.48.13,2.21.13,4.62,0,8.76-2,11.62-5.18.71-1.78,1.1-3.73,1.1-5.76,0-4.35-1.77-8.27-4.62-11.1.98,2.05,1.52,4.33,1.52,6.75"/>
  <path class="cls-3" d="M52.82,34.48c1.34-2.31,2.1-4.98,2.1-7.83,0-2.42-.55-4.7-1.52-6.75-2.83-2.81-6.72-4.54-11.02-4.54-2.26,0-4.41.48-6.36,1.35.44-.04.87-.06,1.32-.05,10.57.02,19.95,12.36,13.17,20.87.88-.91,1.66-1.94,2.31-3.05"/>
  <path class="cls-6" d="M33.88,24.96c1.88-2.65,4.99-4.39,8.5-4.39,4.74,0,8.74,3.17,10.01,7.5-.82-2.93-2.47-5.51-4.69-7.49-2.76-2.44-6.39-3.92-10.36-3.92-.45,0-.88.02-1.32.05-1.88.83-3.56,2.04-4.96,3.5,1.18,1.39,2.14,2.99,2.82,4.74"/>
  <path class="cls-12" d="M65.64,28.63c0,.34-.06.63-.19.88-.12.24-.28.45-.48.62-.2.16-.42.3-.66.39-.25.09-.5.14-.75.17v.63h-1.26v-.63h-.01c-.38-.04-.71-.13-.97-.25-.27-.13-.48-.28-.65-.48-.17-.2-.29-.43-.36-.71-.07-.26-.11-.56-.11-.89v-2.58c0-.34.06-.62.18-.88.12-.25.28-.46.48-.64.2-.17.42-.31.68-.4s.51-.14.77-.14v-.41h1.26v.41c.27,0,.52.06.76.15.25.1.47.23.66.4.2.17.35.39.47.64.12.24.18.54.18.87v2.83M62.3,24.73c-.28.05-.5.14-.67.29-.16.15-.25.38-.25.67v3.05c0,.14.03.28.08.39.05.11.12.21.21.28.09.07.18.14.29.18.11.04.22.06.33.07v-4.93ZM64.47,25.69c0-.29-.09-.53-.26-.68-.17-.16-.39-.25-.65-.28v4.93c.11-.02.21-.05.32-.09.11-.05.21-.11.29-.19.09-.07.16-.16.21-.27.06-.11.08-.24.08-.37v-3.05Z"/>
  <path class="cls-12" d="M71.86,29.28c0,.7-.16,1.22-.48,1.58-.32.36-.82.53-1.5.53s-1.18-.17-1.49-.51c-.31-.34-.47-.83-.47-1.48v-4.03c0-.31.04-.6.11-.86.07-.26.19-.48.34-.67.16-.19.36-.34.61-.43.25-.11.55-.16.9-.16.37,0,.69.05.94.14.25.1.46.24.61.43.15.18.26.41.33.66.07.26.1.56.1.89v3.91M70.6,25.28c0-.22-.05-.43-.15-.6-.1-.18-.28-.26-.56-.26-.15,0-.27.03-.36.1-.09.06-.17.14-.22.24-.05.1-.09.21-.11.33-.02.12-.03.23-.03.33v4.02c0,.21.05.4.16.56.11.16.29.24.54.24s.44-.08.55-.25c.11-.17.16-.39.16-.63v-4.07Z"/>
  <polyline class="cls-12" points="76.96 31.33 76.96 27.83 75.51 27.83 75.51 31.33 74.25 31.33 74.25 23.32 75.51 23.32 75.51 26.67 76.96 26.67 76.96 23.32 78.22 23.32 78.22 31.33 76.96 31.33"/>
  <path class="cls-12" d="M81.2,31.33v1.51h-1.06v-2.55l.48-.1c.22-.23.37-.5.44-.8.08-.31.13-.71.14-1.2l.14-4.86h3.65v6.87h.51v2.64h-1.06v-1.51h-3.24M82.34,28.18c-.02.46-.05.86-.09,1.19-.05.34-.14.62-.27.83h1.75v-5.71h-1.3l-.09,3.69Z"/>
  <path class="cls-12" d="M93.08,23.25c.33,0,.62.05.87.14.24.09.44.22.6.38.16.16.28.35.35.58.07.23.11.47.11.74l-1.23.31c0-.29-.06-.53-.17-.72-.11-.18-.29-.27-.54-.27-.15,0-.27.03-.36.09-.09.06-.16.14-.21.24-.05.1-.09.2-.1.31-.02.12-.03.22-.03.32v4.07c0,.08,0,.16.02.25.02.1.05.18.1.26.05.08.12.14.21.2.09.05.2.08.34.08.46,0,.7-.33.71-.99.21.04.42.07.63.1.21.03.42.05.63.08-.02.61-.18,1.09-.51,1.44-.32.35-.8.53-1.43.53-.67,0-1.17-.16-1.48-.5-.32-.34-.48-.82-.48-1.47v-3.98c0-.3.03-.59.1-.85.07-.26.18-.49.33-.69.16-.2.36-.36.61-.47.25-.12.56-.18.93-.18"/>
  <path class="cls-12" d="M101.02,29.28c0,.7-.16,1.22-.48,1.58-.32.36-.82.53-1.5.53s-1.18-.17-1.49-.51c-.31-.34-.47-.83-.47-1.48v-4.03c0-.31.04-.6.11-.86.08-.26.19-.48.34-.67.15-.19.36-.34.61-.43.25-.11.55-.16.9-.16.37,0,.69.05.94.14.25.1.46.24.61.43.15.18.26.41.33.66.07.26.1.56.1.89v3.91M99.76,25.28c0-.22-.05-.43-.15-.6-.1-.18-.28-.26-.56-.26-.15,0-.27.03-.36.1-.09.06-.17.14-.22.24-.05.1-.08.21-.1.33-.02.12-.03.23-.03.33v4.02c0,.21.05.4.16.56.11.16.29.24.55.24s.44-.08.55-.25c.11-.17.16-.39.16-.63v-4.07Z"/>
  <path class="cls-12" d="M103.95,31.33v1.51h-1.06v-2.55l.48-.1c.22-.23.36-.5.44-.8.08-.31.12-.71.14-1.2l.14-4.86h3.65v6.87h.51v2.64h-1.06v-1.51h-3.24M105.09,28.18c-.02.46-.05.86-.09,1.19-.05.34-.14.62-.27.83h1.75v-5.71h-1.3l-.09,3.69Z"/>
  <polyline class="cls-12" points="110.3 31.33 110.3 23.32 113.91 23.32 113.91 24.48 111.56 24.48 111.56 26.67 113.61 26.67 113.61 27.85 111.56 27.85 111.56 30.16 113.91 30.16 113.91 31.33 110.3 31.33"/>
  <path class="cls-12" d="M118.84,26.31l-1.7,5.02h-1.22v-8h1.23v5.07h.05l1.69-5.07h1.23v8h-1.24v-5.02h-.04M117.33,21.51c0,.08.03.16.08.25.04.09.1.17.16.24.07.08.14.14.23.19.09.05.18.08.29.08.12,0,.22-.03.31-.08.09-.05.16-.11.23-.19.06-.07.11-.15.15-.24.04-.09.05-.17.05-.25h.92c-.01.15-.06.34-.13.52-.07.19-.17.36-.31.52-.14.16-.31.29-.5.4-.2.1-.44.15-.72.15-.3,0-.56-.05-.77-.15-.21-.11-.38-.24-.51-.4-.13-.15-.23-.33-.29-.52-.06-.18-.1-.36-.11-.52h.92Z"/>
  <path class="cls-12" d="M124.42,23.25c.33,0,.62.05.86.14s.44.22.6.38c.16.16.28.35.35.58.07.23.11.47.11.74l-1.23.31c0-.29-.06-.53-.17-.72-.11-.18-.29-.27-.54-.27-.15,0-.27.03-.36.09-.09.06-.17.14-.21.24-.05.1-.09.2-.11.31-.02.12-.03.22-.03.32v4.07c0,.08,0,.16.02.25.02.1.05.18.1.26.05.08.12.14.21.2.09.05.2.08.34.08.46,0,.7-.33.71-.99.21.04.42.07.63.1s.42.05.63.08c-.02.61-.19,1.09-.51,1.44-.32.35-.8.53-1.43.53-.67,0-1.16-.16-1.48-.5-.32-.34-.48-.82-.48-1.47v-3.98c0-.3.03-.59.1-.85.07-.26.18-.49.33-.69.16-.2.36-.36.61-.47.25-.12.56-.18.93-.18"/>
  <polyline class="cls-12" points="130.49 24.48 130.49 31.33 129.23 31.33 129.23 24.48 127.92 24.48 127.92 23.32 131.8 23.32 131.8 24.48 130.49 24.48"/>
  <path class="cls-12" d="M136.65,27.14c.36.11.6.33.74.65.13.33.2.69.2,1.1,0,.83-.18,1.45-.54,1.84s-.92.59-1.67.59h-1.68v-8h1.78c.72,0,1.24.19,1.56.56.32.37.48.91.48,1.61,0,.37-.06.69-.19.97-.13.27-.35.48-.67.62v.06M136.31,25.52c0-.37-.08-.63-.22-.8-.15-.16-.39-.24-.74-.24h-.4v2.07h.41c.33,0,.57-.09.72-.26.15-.18.23-.43.23-.77M136.38,28.79c0-.37-.07-.65-.21-.83-.14-.18-.39-.28-.74-.28h-.48v2.49h.5c.2,0,.36-.04.49-.12.12-.06.21-.16.28-.29.07-.13.11-.27.13-.43.02-.17.03-.34.03-.53"/>
  <polyline class="cls-12" points="142.82 26.31 141.11 31.33 139.9 31.33 139.9 23.32 141.13 23.32 141.13 28.39 141.17 28.39 142.87 23.32 144.1 23.32 144.1 31.33 142.86 31.33 142.86 26.31 142.82 26.31"/>
  <path class="cls-12" d="M146.19,31.33l.46-2.54c.05-.27.14-.52.26-.73.12-.22.28-.39.49-.51-.37-.15-.63-.39-.77-.7-.14-.31-.21-.69-.21-1.12,0-.79.19-1.39.58-1.79.39-.4.91-.61,1.58-.61h1.86v8h-1.26v-3.41h-.33c-.22,0-.42.08-.6.24-.18.17-.31.47-.39.91l-.39,2.26h-1.27M148.68,24.48c-.38,0-.65.12-.8.34s-.23.53-.23.89c0,.39.1.66.29.81.19.14.44.22.73.22h.5v-2.26h-.49Z"/>
  <polyline class="cls-12" points="64 37.98 61.88 44.2 60.38 44.2 60.38 34.28 61.9 34.28 61.9 40.56 61.96 40.56 64.06 34.28 65.58 34.28 65.58 44.2 64.04 44.2 64.04 37.98 64 37.98"/>
  <polyline class="cls-12" points="73.23 44.2 73.23 39.86 71.44 39.86 71.44 44.2 69.87 44.2 69.87 34.28 71.44 34.28 71.44 38.42 73.23 38.42 73.23 34.28 74.8 34.28 74.8 44.2 73.23 44.2"/>
  <polyline class="cls-12" points="82.5 44.2 82.5 39.86 80.7 39.86 80.7 44.2 79.14 44.2 79.14 34.28 80.7 34.28 80.7 38.42 82.5 38.42 82.5 34.28 84.06 34.28 84.06 44.2 82.5 44.2"/>
  <path class="cls-12" d="M93.2,41.66c0,.87-.2,1.52-.59,1.96-.4.44-1.02.66-1.87.66s-1.46-.21-1.85-.63c-.38-.43-.58-1.03-.58-1.83v-4.99c0-.39.04-.75.14-1.07.09-.33.23-.61.43-.84.19-.23.45-.41.76-.53.31-.13.69-.2,1.12-.2.46,0,.85.06,1.16.18.31.12.56.29.75.53.19.23.32.5.41.82.08.33.12.69.12,1.1v4.84M91.63,36.7c0-.28-.06-.53-.18-.74-.12-.23-.35-.34-.69-.34-.18,0-.33.05-.45.13-.12.08-.21.18-.27.3-.06.12-.11.25-.13.4-.02.14-.04.28-.04.41v4.99c0,.25.07.49.2.69.13.21.35.31.67.31s.55-.11.68-.32c.13-.22.2-.48.2-.78v-5.04Z"/>
  <path class="cls-12" d="M101.14,39c.44.14.75.42.91.81.16.4.25.86.25,1.37,0,1.04-.22,1.8-.67,2.28-.45.49-1.14.73-2.07.73h-2.09v-9.92h2.2c.89,0,1.53.23,1.94.69s.6,1.13.6,2c0,.46-.08.86-.24,1.2-.16.34-.44.6-.83.77v.06M100.72,37c0-.46-.09-.79-.28-.99-.18-.2-.49-.3-.91-.3h-.49v2.56h.51c.41,0,.7-.11.89-.33.19-.22.28-.53.28-.95M100.81,41.06c0-.46-.09-.81-.26-1.04s-.48-.34-.91-.34h-.59v3.09h.62c.25,0,.45-.05.6-.14.15-.09.26-.22.35-.37.08-.14.13-.33.16-.53.02-.21.04-.43.04-.66"/>
  <path class="cls-12" d="M110.17,44.2l-.39-2.07h-1.85c-.07.34-.13.69-.2,1.03-.06.35-.12.7-.18,1.04h-1.59c.34-1.67.67-3.32,1.01-4.96.34-1.65.68-3.3,1.01-4.96h1.74l2.04,9.92h-1.59M108.81,36.57c-.1.69-.2,1.37-.31,2.05s-.22,1.38-.35,2.07h1.38l-.65-4.12h-.07Z"/>
  <polyline class="cls-12" points="120.38 34.28 120.38 42.76 121.03 42.76 121.03 46.08 119.72 46.08 119.72 44.19 115.49 44.19 115.49 34.28 117.06 34.28 117.06 42.76 118.81 42.76 118.81 34.28 120.38 34.28"/>
  <polyline class="cls-12" points="128.38 37.98 126.26 44.2 124.75 44.2 124.75 34.28 126.28 34.28 126.28 40.56 126.33 40.56 128.43 34.28 129.96 34.28 129.96 44.2 128.42 44.2 128.42 37.98 128.38 37.98"/>
  <path class="cls-12" d="M133.87,44.2l.56-3.16c.07-.34.18-.63.32-.91.14-.27.35-.48.61-.63-.46-.19-.78-.48-.96-.86-.17-.39-.26-.85-.26-1.39,0-.98.24-1.72.72-2.23.48-.5,1.13-.75,1.96-.75h2.31v9.92h-1.56v-4.24h-.41c-.27,0-.52.11-.75.32-.23.21-.39.58-.49,1.1l-.48,2.82h-1.58M136.96,35.72c-.47,0-.8.14-.99.42-.19.28-.28.65-.28,1.1,0,.49.12.82.35,1.01.24.19.54.28.91.28h.62v-2.81h-.61Z"/>
  <polyline class="cls-12" points="146.38 42.03 145.65 40.19 145.03 38.45 144.96 38.45 144.96 44.2 143.39 44.2 143.39 34.28 144.92 34.28 146.01 37.1 146.8 39.25 146.87 39.25 147.69 37.04 148.77 34.28 150.28 34.28 150.28 44.2 148.71 44.2 148.71 38.48 148.66 38.48 148.02 40.24 147.31 42.03 146.38 42.03"/>
  <path class="cls-9" d="M149.08,50.07c.38-.25.78-.53,1.22-.83l.04-.03h0,0c-2.23,1.01-4.44,1.94-6.64,2.79-13.72,5.32-26.66,7.63-37.92,7.71-15.76.12-28.22-4.11-34.84-10.5h-12.04c18.02,17.06,60.01,21,90.19.86"/>
  <path class="cls-5" d="M47.12,49.21h-11.42c15.18,16.07,36.91,22.17,55.18,22.97,1.89.08,3.74.11,5.55.08,11.85-.17,25.01-2.75,36.46-8.86,6.57-3.49,12.57-8.16,17.44-14.2h0c-27.7,27.1-83.09,22.41-103.21,0"/>
  <path class="cls-11" d="M150.33,49.21h0,0l-.04.03c-.43.31-.84.58-1.22.83-30.18,20.14-72.17,16.2-90.19-.86h-11.76c20.12,22.41,75.51,27.1,103.21,0h0"/>
  <path class="cls-12" d="M7.19,20.53h7.68l3.22-3.23,9.08-9.09V2.44H5.28v5.42h14.55c-1.66,1.67.12-.12-12.65,12.67"/>
  <path class="cls-1" d="M20.59,20.72c4.36,1.01,7.68,4.74,8.06,9.3v-.11c.5,3.42-.11,7.03-2,10.23-1.73,2.95-4.27,5.12-7.17,6.42,5.77-.45,10.67-4.05,13.01-9.06-.13.27-.26.54-.4.81,4.08-7.75-3.57-16.09-11.5-17.58"/>
  <path class="cls-10" d="M26.66,40.15c1.89-3.21,2.5-6.81,1.99-10.23v.11c.03.29.05.59.05.89,0,.36-.02.72-.06,1.08-.23,2.6-1.28,4.63-2.85,6.14-.21.21-.42.42-.64.62l-.05.05c-.21.19-.43.36-.66.53l-.09.06c-.22.16-.45.32-.69.46l-.11.06c-.24.14-.48.27-.73.39l-.12.06c-.25.12-.51.23-.77.33l-.11.04c-.27.1-.55.19-.83.26l-.09.03c-.29.07-.58.14-.88.19h-.05c-.31.06-.63.1-.95.13-6.03,1.05-13.1-1.03-15.66-5.41.57,1.68,1.41,3.22,2.47,4.59l.03.04c.16.21.33.42.51.62l.05.06c.17.2.35.39.54.58l.04.05c.79.81,1.67,1.54,2.62,2.17l.11.07c.19.13.39.24.59.36l.16.09c.19.11.39.22.58.32l.17.09c.21.1.41.2.62.29l.14.06c.26.12.51.22.78.32l.11.05c.14.05.29.09.43.14l.23.07c.11.04.22.06.32.1h0c.31.09.61.17.93.24.19.05.38.08.57.12.14.03.28.05.43.07h.02c.32.05.65.1.98.13h.18s.16.03.16.03c.35.02.71.04,1.06.05h.05c.37,0,.73-.02,1.08-.05h.18c2.91-1.3,5.44-3.48,7.17-6.43"/>
  <path class="cls-12" d="M33.94,30.81c0-.25,0-.51-.02-.76,0-.14-.02-.27-.03-.41-.01-.14-.02-.28-.04-.43-.02-.16-.04-.33-.06-.49-.01-.1-.03-.21-.05-.32-.03-.18-.06-.36-.1-.54l-.05-.23c-.04-.21-.09-.41-.14-.62l-.03-.1c-1.24-4.72-4.62-8.57-9.03-10.46l-.12-.05c-.2-.08-.41-.16-.61-.24l-.19-.06c-.29-.1-.59-.2-.89-.29-.15-.04-.31-.08-.46-.13-.12-.03-.24-.05-.36-.08-.18-.04-.35-.08-.53-.12l-2.48,2.48-2.54,2.54h.89c.37-.05.75-.06,1.13-.06.81,0,1.59.1,2.35.27,7.92,1.49,15.57,9.83,11.5,17.58.14-.26.28-.53.4-.81l.04-.09c.11-.25.22-.5.32-.75l.04-.11c.33-.85.59-1.75.77-2.66l.03-.14c.05-.25.09-.5.12-.75l.03-.22c.03-.24.05-.49.07-.73l.02-.21c.02-.31.03-.62.03-.93v-.09"/>
  <path class="cls-8" d="M3.36,35.93c2.56,4.37,9.63,6.46,15.66,5.41-.26.02-.52.04-.78.04-5.62,0-10.2-4.45-10.44-10.01H2.55c.05,1.59.32,3.13.81,4.57"/>
  <path class="cls-4" d="M150.62,49.18l-.03-.06s-.07-.09-.1-.12c-.02-.02-.1-.06-.13-.07-.02,0-.08-.02-.1-.02-.03,0-.06,0-.09,0l-.11.03c-2.21.99-4.43,1.92-6.6,2.76-12.69,4.9-25.73,7.54-37.7,7.63h-.64c-14.67,0-27.01-3.76-33.84-10.31-.02-.02-.05-.04-.08-.05l-.11-.04s-.06-.02-.09-.02h-35.15s-.09.01-.13.04l-.14.09c-.08.05-.13.15-.11.25l.03.17s.03.09.07.13c7.07,7.44,16,13.22,26.53,17.18,8.83,3.32,18.8,5.31,28.81,5.74,1.39.06,2.81.09,4.2.09.45,0,.91,0,1.36,0,6.26-.09,12.46-.83,18.43-2.2,6.56-1.5,12.67-3.74,18.14-6.64,7.02-3.72,12.91-8.5,17.53-14.2,0-.01.02-.02.02-.03,0,0,0-.02.01-.03l.02-.05s.03-.07.03-.11v-.07s0-.07-.02-.1ZM149.36,49.98c-4.46,5.27-10.05,9.72-16.65,13.21-10.29,5.46-23.18,8.57-36.27,8.76-1.81.03-3.68,0-5.52-.08-12.87-.56-36.98-4.21-54.49-22.3h34.46c6.97,6.63,19.44,10.43,34.23,10.43.21,0,.43,0,.65,0,12.04-.09,25.16-2.74,37.93-7.67,1.87-.72,3.77-1.51,5.66-2.34Z"/>
  <g>
    <path class="cls-12" d="M30.59,7.13c.82-.33.95-.61.95-2.18v-2.4h3.47v5.33h-1.18V3.6h-1.2v1.26c0,2.19-.42,2.94-1.74,3.17l-.29-.89Z"/>
    <path class="cls-12" d="M40.09,6.85c-.32.71-1.02,1.09-1.81,1.09-1.51,0-2.07-.88-2.07-2.71,0-1.52.44-2.74,2.01-2.74,1.46,0,1.98,1.02,1.98,2.42v.62h-2.79c0,.7.15,1.32.84,1.32.34,0,.64-.2.85-.54.32.17.66.34.98.53ZM38.21,3.59c-.57,0-.75.5-.78,1.12h1.56c0-.67-.22-1.12-.79-1.12Z"/>
    <path class="cls-12" d="M43.42,3.55v4.34h-1.16V3.55h-1.35v-.99h3.88v.99h-1.37Z"/>
  </g>
</svg>