<svg xmlns="http://www.w3.org/2000/svg" viewBox="0 0 707.84 707.84"><defs><style>.cls-1{fill:#b1ec52;}.cls-2{fill:#4d5759;}</style></defs><g id="Слой_2" data-name="Слой 2"><g id="Лого"><path class="cls-1" d="M177,0A177,177,0,0,0,0,177V530.88a177,177,0,0,0,177,177H530.88a177,177,0,0,0,177-177V0Z"/><path class="cls-2" d="M584.9,265.32h-85l-80.85,88.54V177H353.48v42.86c-2.14-2.77-4.4-5.51-6.93-8.19-23.85-25.25-58.22-38-102.16-38-50.81,0-79.7,22.74-95,41.81-19,23.69-27.46,56-21.59,82.34,15.19,68.18,78.46,79.07,124.93,85.11,36.69,4.77,71.79,11.43,70.86,44.13-1,33.94-39.23,42.29-64.34,42.29-65.4,0-67.61-48.34-67.61-48.34H121.3c1,18.15,6.52,47.29,28.86,72.31,24.48,27.39,61.18,41.28,109.09,41.28,36.76,0,70.23-12,94.23-33.23V530.5h65.59V447l23.21-25.4,66.26,108.9h76.34L488.46,371ZM193.46,282.65c-5.79-25.32,19.47-47.72,52.14-47.72,29.43,0,58.93,6.6,70.15,47.63h37.73v62.62C306.44,306.52,204.47,330.78,193.46,282.65Z"/></g></g></svg>